<svg height="38" role="img" viewBox="-6.5 -8.9 145.45 38.4" class="jsx-2111810157 WistiaLogo Navbar__logo Logo--large" xmlns="http://www.w3.org/2000/svg" xmlns:xlink="http://www.w3.org/1999/xlink"><title class="jsx-2111810157">Wistia</title><g fill="#1e64f0" class="jsx-2111810157"><path d=" M15.37 19.26c-3.45.95-11.23.49-12.48.49H0l4.76-5.37c1.29-1.45 2-1.75 3.39-1.75s4.77.14 6.58 0A18.14 18.14 0 0022 10.64c2.95-1.86 3.54-3 3.54-3s1.05 8.53-10.17 11.62z " class="jsx-2111810157"></path><path d=" M25.19 4.19C25.73.9 23.87 0 23.87 0S24 2.68 19 3.25c-4.37.5-19 .12-19 .12l4.71 5.4a4 4 0 003.39 1.74 60.59 60.59 0 006.75-.1 15.8 15.8 0 008-2.7 6 6 0 002.34-3.52z " class="jsx-2111810157"></path></g><g class="jsx-2111810157"><path d=" M56.56.25h3.09l-7.9 19.61h-.82L44.76 4.51l-6.24 15.35h-.81v-.1L29.84.25H33l5.18 13 5.23-13h2.81l5.25 13zm6.06 19.53h3.07V.25h-3.07zM77.84 9.16l-2.1-1.24a8.29 8.29 0 01-2-1.55 2.31 2.31 0 01-.6-1.52 1.73 1.73 0 01.8-1.46 3.59 3.59 0 012.12-.59 6.23 6.23 0 014.36 2l.27.26V1.43l-.07-.05A7.91 7.91 0 0076.1 0a6 6 0 00-4.19 1.46 4.89 4.89 0 00-1.63 3.8A4.67 4.67 0 0071.14 8 9.72 9.72 0 0074 10.44l2.09 1.27c1.62 1 2.45 2.08 2.45 3.19a2.08 2.08 0 01-.8 1.68 3.11 3.11 0 01-2 .68 6.35 6.35 0 01-5-2.76l-.29-.36v4h.07A8.62 8.62 0 0075.71 20a5.83 5.83 0 004.13-1.49 5.07 5.07 0 001.6-3.87c0-2.21-1.21-4.06-3.6-5.48zM83.72 3h5.8v16.78h3.08V3h5.91V.22H83.72zm18.12 16.79h3.07V.25h-3.07zm25.31 0H124l-2.56-5.69h-8L111 19.78h-3.18l.1-.22L116.25.14h2.14zM117.3 4.93l-2.64 6.39h5.49z " fill="#09152F" class="jsx-2111810157"></path></g></svg>